<svg width="18" height="19" viewBox="0 0 18 19" fill="none" xmlns="http://www.w3.org/2000/svg">
<path fill-rule="evenodd" clip-rule="evenodd" d="M12.68 16.8949L8.99946 14.8494L5.31947 16.8946C4.91595 17.1189 4.40739 16.9729 4.18356 16.5686C4.09264 16.4044 4.05948 16.2143 4.08942 16.0288L4.8002 11.6269L1.73665 8.47178C1.41488 8.14039 1.42215 7.61037 1.75289 7.28796C1.87754 7.16644 2.03694 7.08693 2.20885 7.06051L6.40468 6.4157L8.24298 2.48233C8.43867 2.06361 8.93607 1.88313 9.35396 2.07921C9.53096 2.16226 9.67331 2.30486 9.75623 2.4822L11.595 6.41488L15.791 7.05972C16.2471 7.12982 16.5602 7.55712 16.4902 8.01413C16.4639 8.18635 16.3845 8.34604 16.2633 8.47094L13.2003 11.6261L13.9101 16.0293C13.9836 16.4858 13.674 16.9156 13.2185 16.9893C13.0335 17.0192 12.8438 16.986 12.68 16.8949Z" fill="#E8B000"/>
<path fill-rule="evenodd" clip-rule="evenodd" d="M8.99946 13.1333L12.2116 14.9185L11.5996 11.1215L14.2929 8.3471L10.5755 7.7758L8.99977 4.40579L7.42439 7.7766L3.70709 8.34787L6.40109 11.1224L5.78821 14.918L8.99946 13.1333ZM4.8002 11.6269L4.08942 16.0288C4.05948 16.2143 4.09264 16.4044 4.18356 16.5686C4.40739 16.9729 4.91595 17.1189 5.31947 16.8946L8.99946 14.8494L12.68 16.8949C12.8438 16.986 13.0335 17.0192 13.2185 16.9893C13.674 16.9156 13.9836 16.4858 13.9101 16.0293L13.2003 11.6261L16.2633 8.47094C16.3845 8.34604 16.4639 8.18635 16.4902 8.01413C16.5602 7.55712 16.2471 7.12982 15.791 7.05972L11.595 6.41488L9.75623 2.4822C9.67331 2.30486 9.53097 2.16226 9.35396 2.07921C8.93607 1.88313 8.43867 2.06361 8.24298 2.48233L6.40468 6.4157L2.20885 7.06051C2.03694 7.08693 1.87754 7.16644 1.75289 7.28796C1.42215 7.61037 1.41488 8.14039 1.73665 8.47178L4.8002 11.6269Z" fill="#E8B000"/>
</svg>
